<?xml version="1.0" encoding="UTF-8"?>
<svg xmlns="http://www.w3.org/2000/svg" xmlns:xlink="http://www.w3.org/1999/xlink" width="120px" height="90px" viewBox="0 0 120 90" version="1.1">
<defs>
<linearGradient id="linear0" gradientUnits="userSpaceOnUse" x1="-102.120598" y1="-471.710388" x2="-102.120598" y2="-365.878387" gradientTransform="matrix(0.594,0,0,-0.594,120.612003,-205.299023)">
<stop offset="0" style="stop-color:rgb(12.54902%,45.882353%,73.72549%);stop-opacity:1;"/>
<stop offset="1" style="stop-color:rgb(16.078431%,66.666667%,88.235294%);stop-opacity:1;"/>
</linearGradient>
<linearGradient id="linear1" gradientUnits="userSpaceOnUse" x1="-147.090302" y1="-471.710388" x2="-147.090302" y2="-365.878387" gradientTransform="matrix(0.594,0,0,-0.594,120.612003,-205.299023)">
<stop offset="0" style="stop-color:rgb(3.921569%,41.568627%,65.882353%);stop-opacity:1;"/>
<stop offset="1" style="stop-color:rgb(8.627451%,60%,78.431373%);stop-opacity:1;"/>
</linearGradient>
<linearGradient id="linear2" gradientUnits="userSpaceOnUse" x1="-117.173798" y1="-471.710388" x2="-117.173798" y2="-365.878387" gradientTransform="matrix(0.594,0,0,-0.594,120.612003,-205.299023)">
<stop offset="0" style="stop-color:rgb(12.54902%,45.882353%,73.72549%);stop-opacity:1;"/>
<stop offset="1" style="stop-color:rgb(16.078431%,66.666667%,88.235294%);stop-opacity:1;"/>
</linearGradient>
<linearGradient id="linear3" gradientUnits="userSpaceOnUse" x1="-87.164101" y1="-471.710388" x2="-87.164101" y2="-365.878387" gradientTransform="matrix(0.594,0,0,-0.594,120.612003,-205.299023)">
<stop offset="0" style="stop-color:rgb(3.921569%,41.568627%,65.882353%);stop-opacity:1;"/>
<stop offset="1" style="stop-color:rgb(8.627451%,60%,78.431373%);stop-opacity:1;"/>
</linearGradient>
<linearGradient id="linear4" gradientUnits="userSpaceOnUse" x1="-57.245098" y1="-471.710388" x2="-57.245098" y2="-365.878387" gradientTransform="matrix(0.594,0,0,-0.594,120.612003,-205.299023)">
<stop offset="0" style="stop-color:rgb(12.54902%,45.882353%,73.72549%);stop-opacity:1;"/>
<stop offset="1" style="stop-color:rgb(16.078431%,66.666667%,88.235294%);stop-opacity:1;"/>
</linearGradient>
<clipPath id="clip1">
  <path d="M 34 25 L 86 25 L 86 64 L 34 64 Z M 34 25 "/>
</clipPath>
<clipPath id="clip2">
  <path d="M 85.386719 44.625 C 84.71875 42.734375 84.941406 39.515625 84.609375 39.070312 C 82.5 36.183594 74.945312 35.738281 71.503906 31.960938 C 72.058594 30.074219 70.835938 28.628906 69.617188 27.40625 C 67.726562 26.074219 65.171875 26.628906 63.171875 27.1875 C 60.953125 26.742188 58.839844 25.851562 56.621094 25.296875 C 51.734375 24.742188 46.847656 28.183594 46.847656 28.183594 C 43.292969 30.40625 37.851562 35.070312 35.183594 37.738281 C 35.851562 37.847656 36.515625 37.292969 37.292969 37.292969 L 42.402344 35.960938 C 40.292969 37.738281 35.851562 40.738281 34.519531 43.179688 C 36.074219 42.625 39.40625 40.847656 41.070312 40.625 C 39.628906 41.847656 36.628906 44.289062 35.628906 45.84375 C 35.738281 45.957031 35.628906 46.066406 35.628906 46.179688 C 36.851562 45.511719 39.847656 43.734375 41.292969 43.625 C 39.847656 45.066406 37.292969 47.957031 36.738281 49.84375 C 37.960938 49.066406 41.070312 47.398438 42.402344 46.957031 C 42.070312 47.734375 41.40625 48.289062 40.960938 48.953125 C 40.292969 49.953125 38.847656 51.175781 38.847656 52.398438 C 39.960938 51.398438 41.292969 50.507812 42.625 49.84375 C 42.070312 51.066406 40.960938 52.066406 40.625 53.617188 C 41.515625 52.730469 43.179688 52.285156 44.292969 51.953125 L 44.179688 52.066406 C 44.070312 52.175781 42.847656 53.0625 41.960938 54.0625 C 42.734375 54.0625 42.179688 53.953125 43.179688 54.175781 L 43.738281 54.175781 C 43.515625 54.285156 43.179688 54.507812 42.847656 54.617188 C 42.402344 54.839844 41.847656 55.175781 41.40625 55.398438 C 43.515625 58.0625 46.070312 60.28125 49.066406 61.726562 C 52.953125 63.613281 57.175781 64.28125 61.507812 63.726562 C 61.507812 63.503906 61.394531 63.28125 61.285156 62.949219 C 61.175781 62.617188 61.0625 62.394531 61.0625 62.0625 C 62.507812 59.394531 61.730469 54.730469 65.503906 52.839844 C 68.058594 51.507812 68.28125 50.84375 71.171875 51.398438 C 72.722656 51.730469 76.167969 52.839844 77.722656 52.507812 C 79.167969 51.730469 79.945312 51.289062 81.277344 50.398438 C 82.832031 50.730469 83.386719 50.507812 83.945312 49.730469 C 83.386719 50.507812 84.941406 46.84375 85.609375 45.511719 Z M 85.386719 44.625 "/>
</clipPath>
<clipPath id="clip3">
  <path d="M 34 25 L 43 25 L 43 64 L 34 64 Z M 34 25 "/>
</clipPath>
<clipPath id="clip4">
  <path d="M 85.386719 44.625 C 84.71875 42.734375 84.941406 39.515625 84.609375 39.070312 C 82.5 36.183594 74.945312 35.738281 71.503906 31.960938 C 72.058594 30.074219 70.835938 28.628906 69.617188 27.40625 C 67.726562 26.074219 65.171875 26.628906 63.171875 27.1875 C 60.953125 26.742188 58.839844 25.851562 56.621094 25.296875 C 51.734375 24.742188 46.847656 28.183594 46.847656 28.183594 C 43.292969 30.40625 37.851562 35.070312 35.183594 37.738281 C 35.851562 37.847656 36.515625 37.292969 37.292969 37.292969 L 42.402344 35.960938 C 40.292969 37.738281 35.851562 40.738281 34.519531 43.179688 C 36.074219 42.625 39.40625 40.847656 41.070312 40.625 C 39.628906 41.847656 36.628906 44.289062 35.628906 45.84375 C 35.738281 45.957031 35.628906 46.066406 35.628906 46.179688 C 36.851562 45.511719 39.847656 43.734375 41.292969 43.625 C 39.847656 45.066406 37.292969 47.957031 36.738281 49.84375 C 37.960938 49.066406 41.070312 47.398438 42.402344 46.957031 C 42.070312 47.734375 41.40625 48.289062 40.960938 48.953125 C 40.292969 49.953125 38.847656 51.175781 38.847656 52.398438 C 39.960938 51.398438 41.292969 50.507812 42.625 49.84375 C 42.070312 51.066406 40.960938 52.066406 40.625 53.617188 C 41.515625 52.730469 43.179688 52.285156 44.292969 51.953125 L 44.179688 52.066406 C 44.070312 52.175781 42.847656 53.0625 41.960938 54.0625 C 42.734375 54.0625 42.179688 53.953125 43.179688 54.175781 L 43.738281 54.175781 C 43.515625 54.285156 43.179688 54.507812 42.847656 54.617188 C 42.402344 54.839844 41.847656 55.175781 41.40625 55.398438 C 43.515625 58.0625 46.070312 60.28125 49.066406 61.726562 C 52.953125 63.613281 57.175781 64.28125 61.507812 63.726562 C 61.507812 63.503906 61.394531 63.28125 61.285156 62.949219 C 61.175781 62.617188 61.0625 62.394531 61.0625 62.0625 C 62.507812 59.394531 61.730469 54.730469 65.503906 52.839844 C 68.058594 51.507812 68.28125 50.84375 71.171875 51.398438 C 72.722656 51.730469 76.167969 52.839844 77.722656 52.507812 C 79.167969 51.730469 79.945312 51.289062 81.277344 50.398438 C 82.832031 50.730469 83.386719 50.507812 83.945312 49.730469 C 83.386719 50.507812 84.941406 46.84375 85.609375 45.511719 Z M 85.386719 44.625 "/>
</clipPath>
<clipPath id="clip5">
  <path d="M 42 25 L 61 25 L 61 64 L 42 64 Z M 42 25 "/>
</clipPath>
<clipPath id="clip6">
  <path d="M 85.386719 44.625 C 84.71875 42.734375 84.941406 39.515625 84.609375 39.070312 C 82.5 36.183594 74.945312 35.738281 71.503906 31.960938 C 72.058594 30.074219 70.835938 28.628906 69.617188 27.40625 C 67.726562 26.074219 65.171875 26.628906 63.171875 27.1875 C 60.953125 26.742188 58.839844 25.851562 56.621094 25.296875 C 51.734375 24.742188 46.847656 28.183594 46.847656 28.183594 C 43.292969 30.40625 37.851562 35.070312 35.183594 37.738281 C 35.851562 37.847656 36.515625 37.292969 37.292969 37.292969 L 42.402344 35.960938 C 40.292969 37.738281 35.851562 40.738281 34.519531 43.179688 C 36.074219 42.625 39.40625 40.847656 41.070312 40.625 C 39.628906 41.847656 36.628906 44.289062 35.628906 45.84375 C 35.738281 45.957031 35.628906 46.066406 35.628906 46.179688 C 36.851562 45.511719 39.847656 43.734375 41.292969 43.625 C 39.847656 45.066406 37.292969 47.957031 36.738281 49.84375 C 37.960938 49.066406 41.070312 47.398438 42.402344 46.957031 C 42.070312 47.734375 41.40625 48.289062 40.960938 48.953125 C 40.292969 49.953125 38.847656 51.175781 38.847656 52.398438 C 39.960938 51.398438 41.292969 50.507812 42.625 49.84375 C 42.070312 51.066406 40.960938 52.066406 40.625 53.617188 C 41.515625 52.730469 43.179688 52.285156 44.292969 51.953125 L 44.179688 52.066406 C 44.070312 52.175781 42.847656 53.0625 41.960938 54.0625 C 42.734375 54.0625 42.179688 53.953125 43.179688 54.175781 L 43.738281 54.175781 C 43.515625 54.285156 43.179688 54.507812 42.847656 54.617188 C 42.402344 54.839844 41.847656 55.175781 41.40625 55.398438 C 43.515625 58.0625 46.070312 60.28125 49.066406 61.726562 C 52.953125 63.613281 57.175781 64.28125 61.507812 63.726562 C 61.507812 63.503906 61.394531 63.28125 61.285156 62.949219 C 61.175781 62.617188 61.0625 62.394531 61.0625 62.0625 C 62.507812 59.394531 61.730469 54.730469 65.503906 52.839844 C 68.058594 51.507812 68.28125 50.84375 71.171875 51.398438 C 72.722656 51.730469 76.167969 52.839844 77.722656 52.507812 C 79.167969 51.730469 79.945312 51.289062 81.277344 50.398438 C 82.832031 50.730469 83.386719 50.507812 83.945312 49.730469 C 83.386719 50.507812 84.941406 46.84375 85.609375 45.511719 Z M 85.386719 44.625 "/>
</clipPath>
<clipPath id="clip7">
  <path d="M 60 25 L 78 25 L 78 64 L 60 64 Z M 60 25 "/>
</clipPath>
<clipPath id="clip8">
  <path d="M 85.386719 44.625 C 84.71875 42.734375 84.941406 39.515625 84.609375 39.070312 C 82.5 36.183594 74.945312 35.738281 71.503906 31.960938 C 72.058594 30.074219 70.835938 28.628906 69.617188 27.40625 C 67.726562 26.074219 65.171875 26.628906 63.171875 27.1875 C 60.953125 26.742188 58.839844 25.851562 56.621094 25.296875 C 51.734375 24.742188 46.847656 28.183594 46.847656 28.183594 C 43.292969 30.40625 37.851562 35.070312 35.183594 37.738281 C 35.851562 37.847656 36.515625 37.292969 37.292969 37.292969 L 42.402344 35.960938 C 40.292969 37.738281 35.851562 40.738281 34.519531 43.179688 C 36.074219 42.625 39.40625 40.847656 41.070312 40.625 C 39.628906 41.847656 36.628906 44.289062 35.628906 45.84375 C 35.738281 45.957031 35.628906 46.066406 35.628906 46.179688 C 36.851562 45.511719 39.847656 43.734375 41.292969 43.625 C 39.847656 45.066406 37.292969 47.957031 36.738281 49.84375 C 37.960938 49.066406 41.070312 47.398438 42.402344 46.957031 C 42.070312 47.734375 41.40625 48.289062 40.960938 48.953125 C 40.292969 49.953125 38.847656 51.175781 38.847656 52.398438 C 39.960938 51.398438 41.292969 50.507812 42.625 49.84375 C 42.070312 51.066406 40.960938 52.066406 40.625 53.617188 C 41.515625 52.730469 43.179688 52.285156 44.292969 51.953125 L 44.179688 52.066406 C 44.070312 52.175781 42.847656 53.0625 41.960938 54.0625 C 42.734375 54.0625 42.179688 53.953125 43.179688 54.175781 L 43.738281 54.175781 C 43.515625 54.285156 43.179688 54.507812 42.847656 54.617188 C 42.402344 54.839844 41.847656 55.175781 41.40625 55.398438 C 43.515625 58.0625 46.070312 60.28125 49.066406 61.726562 C 52.953125 63.613281 57.175781 64.28125 61.507812 63.726562 C 61.507812 63.503906 61.394531 63.28125 61.285156 62.949219 C 61.175781 62.617188 61.0625 62.394531 61.0625 62.0625 C 62.507812 59.394531 61.730469 54.730469 65.503906 52.839844 C 68.058594 51.507812 68.28125 50.84375 71.171875 51.398438 C 72.722656 51.730469 76.167969 52.839844 77.722656 52.507812 C 79.167969 51.730469 79.945312 51.289062 81.277344 50.398438 C 82.832031 50.730469 83.386719 50.507812 83.945312 49.730469 C 83.386719 50.507812 84.941406 46.84375 85.609375 45.511719 Z M 85.386719 44.625 "/>
</clipPath>
<clipPath id="clip9">
  <path d="M 77 25 L 86 25 L 86 64 L 77 64 Z M 77 25 "/>
</clipPath>
<clipPath id="clip10">
  <path d="M 85.386719 44.625 C 84.71875 42.734375 84.941406 39.515625 84.609375 39.070312 C 82.5 36.183594 74.945312 35.738281 71.503906 31.960938 C 72.058594 30.074219 70.835938 28.628906 69.617188 27.40625 C 67.726562 26.074219 65.171875 26.628906 63.171875 27.1875 C 60.953125 26.742188 58.839844 25.851562 56.621094 25.296875 C 51.734375 24.742188 46.847656 28.183594 46.847656 28.183594 C 43.292969 30.40625 37.851562 35.070312 35.183594 37.738281 C 35.851562 37.847656 36.515625 37.292969 37.292969 37.292969 L 42.402344 35.960938 C 40.292969 37.738281 35.851562 40.738281 34.519531 43.179688 C 36.074219 42.625 39.40625 40.847656 41.070312 40.625 C 39.628906 41.847656 36.628906 44.289062 35.628906 45.84375 C 35.738281 45.957031 35.628906 46.066406 35.628906 46.179688 C 36.851562 45.511719 39.847656 43.734375 41.292969 43.625 C 39.847656 45.066406 37.292969 47.957031 36.738281 49.84375 C 37.960938 49.066406 41.070312 47.398438 42.402344 46.957031 C 42.070312 47.734375 41.40625 48.289062 40.960938 48.953125 C 40.292969 49.953125 38.847656 51.175781 38.847656 52.398438 C 39.960938 51.398438 41.292969 50.507812 42.625 49.84375 C 42.070312 51.066406 40.960938 52.066406 40.625 53.617188 C 41.515625 52.730469 43.179688 52.285156 44.292969 51.953125 L 44.179688 52.066406 C 44.070312 52.175781 42.847656 53.0625 41.960938 54.0625 C 42.734375 54.0625 42.179688 53.953125 43.179688 54.175781 L 43.738281 54.175781 C 43.515625 54.285156 43.179688 54.507812 42.847656 54.617188 C 42.402344 54.839844 41.847656 55.175781 41.40625 55.398438 C 43.515625 58.0625 46.070312 60.28125 49.066406 61.726562 C 52.953125 63.613281 57.175781 64.28125 61.507812 63.726562 C 61.507812 63.503906 61.394531 63.28125 61.285156 62.949219 C 61.175781 62.617188 61.0625 62.394531 61.0625 62.0625 C 62.507812 59.394531 61.730469 54.730469 65.503906 52.839844 C 68.058594 51.507812 68.28125 50.84375 71.171875 51.398438 C 72.722656 51.730469 76.167969 52.839844 77.722656 52.507812 C 79.167969 51.730469 79.945312 51.289062 81.277344 50.398438 C 82.832031 50.730469 83.386719 50.507812 83.945312 49.730469 C 83.386719 50.507812 84.941406 46.84375 85.609375 45.511719 Z M 85.386719 44.625 "/>
</clipPath>
</defs>
<g id="surface1">
<path style=" stroke:none;fill-rule:nonzero;fill:url(#linear0);" d="M 77.722656 12.082031 L 77.722656 11.96875 L 77.722656 12.082031 L 77.613281 11.96875 L 77.613281 12.082031 L 59.953125 19.078125 L 42.179688 12.082031 L 42.179688 11.96875 L 42.070312 12.082031 L 42.070312 11.96875 L 42.070312 12.082031 L 24.300781 19.1875 L 24.300781 74.835938 L 42.070312 68.058594 L 59.953125 74.835938 L 77.722656 68.058594 L 95.605469 74.835938 L 95.605469 19.1875 Z M 77.722656 12.082031 "/>
<path style=" stroke:none;fill-rule:nonzero;fill:url(#linear1);" d="M 24.300781 19.1875 L 24.300781 74.835938 L 42.179688 68.058594 L 42.179688 11.96875 Z M 24.300781 19.1875 "/>
<path style=" stroke:none;fill-rule:nonzero;fill:url(#linear2);" d="M 59.953125 19.1875 L 59.953125 74.835938 L 42.070312 68.058594 L 42.070312 11.96875 Z M 59.953125 19.1875 "/>
<path style=" stroke:none;fill-rule:nonzero;fill:url(#linear3);" d="M 59.953125 19.1875 L 59.953125 74.835938 L 77.722656 68.058594 L 77.722656 11.96875 Z M 59.953125 19.1875 "/>
<path style=" stroke:none;fill-rule:nonzero;fill:url(#linear4);" d="M 95.605469 19.1875 L 95.605469 74.835938 L 77.613281 68.058594 L 77.613281 11.96875 Z M 95.605469 19.1875 "/>
<g clip-path="url(#clip1)" clip-rule="nonzero">
<g clip-path="url(#clip2)" clip-rule="nonzero">
<path style=" stroke:none;fill-rule:nonzero;fill:rgb(100%,100%,100%);fill-opacity:1;" d="M 59.953125 22.410156 C 78.230469 22.410156 93.050781 32.453125 93.050781 44.847656 C 93.050781 57.238281 78.230469 67.28125 59.953125 67.28125 C 41.675781 67.28125 26.855469 57.238281 26.855469 44.847656 C 26.855469 32.453125 41.675781 22.410156 59.953125 22.410156 Z M 59.953125 22.410156 "/>
</g>
</g>
<g clip-path="url(#clip3)" clip-rule="nonzero">
<g clip-path="url(#clip4)" clip-rule="nonzero">
<path style=" stroke:none;fill-rule:nonzero;fill:rgb(94.901961%,94.901961%,94.901961%);fill-opacity:1;" d="M 24.746094 20.1875 L 24.746094 76.5 L 42.402344 69.503906 L 42.402344 13.082031 Z M 24.746094 20.1875 "/>
</g>
</g>
<g clip-path="url(#clip5)" clip-rule="nonzero">
<g clip-path="url(#clip6)" clip-rule="nonzero">
<path style=" stroke:none;fill-rule:nonzero;fill:rgb(100%,100%,100%);fill-opacity:1;" d="M 60.0625 20.1875 L 60.0625 76.5 L 42.292969 69.503906 L 42.292969 13.082031 Z M 60.0625 20.1875 "/>
</g>
</g>
<g clip-path="url(#clip7)" clip-rule="nonzero">
<g clip-path="url(#clip8)" clip-rule="nonzero">
<path style=" stroke:none;fill-rule:nonzero;fill:rgb(94.901961%,94.901961%,94.901961%);fill-opacity:1;" d="M 60.0625 20.1875 L 60.0625 76.5 L 77.613281 69.503906 L 77.613281 13.082031 Z M 60.0625 20.1875 "/>
</g>
</g>
<g clip-path="url(#clip9)" clip-rule="nonzero">
<g clip-path="url(#clip10)" clip-rule="nonzero">
<path style=" stroke:none;fill-rule:nonzero;fill:rgb(100%,100%,100%);fill-opacity:1;" d="M 95.382812 20.1875 L 95.382812 76.5 L 77.613281 69.503906 L 77.613281 13.082031 Z M 95.382812 20.1875 "/>
</g>
</g>
</g>
</svg>
